<mxfile host="app.diagrams.net" agent="Mozilla/5.0 (Windows NT 10.0; Win64; x64) AppleWebKit/537.36 (KHTML, like Gecko) Chrome/137.0.0.0 Safari/537.36" version="27.1.6">
  <diagram name="Страница — 1" id="HxOfLFtwqRYSntutFu7W">
    <mxGraphModel dx="2531" dy="2096" grid="1" gridSize="10" guides="1" tooltips="1" connect="1" arrows="1" fold="1" page="1" pageScale="1" pageWidth="827" pageHeight="1169" math="0" shadow="0">
      <root>
        <mxCell id="0" />
        <mxCell id="1" parent="0" />
        <mxCell id="YKiGXNoE6KG7aFmrv9Qk-2" value="" style="strokeWidth=2;html=1;shape=mxgraph.flowchart.start_2;whiteSpace=wrap;" vertex="1" parent="1">
          <mxGeometry x="560" y="80" width="40" height="40" as="geometry" />
        </mxCell>
        <mxCell id="YKiGXNoE6KG7aFmrv9Qk-3" value="Start" style="rounded=1;whiteSpace=wrap;html=1;absoluteArcSize=1;arcSize=14;strokeWidth=2;" vertex="1" parent="1">
          <mxGeometry x="540" y="200" width="80" height="40" as="geometry" />
        </mxCell>
        <mxCell id="YKiGXNoE6KG7aFmrv9Qk-4" value="ErrorHandling" style="swimlane;childLayout=stackLayout;horizontal=1;startSize=40;horizontalStack=0;rounded=1;fontSize=14;fontStyle=0;strokeWidth=2;resizeParent=0;resizeLast=1;shadow=0;dashed=0;align=center;arcSize=4;whiteSpace=wrap;html=1;" vertex="1" parent="1">
          <mxGeometry x="40" y="40" width="440" height="320" as="geometry" />
        </mxCell>
        <mxCell id="YKiGXNoE6KG7aFmrv9Qk-8" value="" style="strokeWidth=2;html=1;shape=mxgraph.flowchart.start_2;whiteSpace=wrap;" vertex="1" parent="1">
          <mxGeometry x="240" y="80" width="40" height="40" as="geometry" />
        </mxCell>
        <mxCell id="YKiGXNoE6KG7aFmrv9Qk-11" value="InvalidInput" style="rounded=1;whiteSpace=wrap;html=1;absoluteArcSize=1;arcSize=14;strokeWidth=2;" vertex="1" parent="1">
          <mxGeometry x="220" y="160" width="80" height="40" as="geometry" />
        </mxCell>
        <mxCell id="YKiGXNoE6KG7aFmrv9Qk-14" value="RetryAction" style="rounded=1;whiteSpace=wrap;html=1;absoluteArcSize=1;arcSize=14;strokeWidth=2;" vertex="1" parent="1">
          <mxGeometry x="80" y="280" width="80" height="40" as="geometry" />
        </mxCell>
        <mxCell id="YKiGXNoE6KG7aFmrv9Qk-15" value="CancleAction" style="rounded=1;whiteSpace=wrap;html=1;absoluteArcSize=1;arcSize=14;strokeWidth=2;" vertex="1" parent="1">
          <mxGeometry x="360" y="280" width="80" height="40" as="geometry" />
        </mxCell>
        <mxCell id="YKiGXNoE6KG7aFmrv9Qk-16" value="" style="endArrow=classic;html=1;rounded=0;fontSize=12;startSize=8;endSize=8;curved=1;exitX=0.5;exitY=1;exitDx=0;exitDy=0;exitPerimeter=0;entryX=0.5;entryY=0;entryDx=0;entryDy=0;" edge="1" parent="1" source="YKiGXNoE6KG7aFmrv9Qk-8" target="YKiGXNoE6KG7aFmrv9Qk-11">
          <mxGeometry width="50" height="50" relative="1" as="geometry">
            <mxPoint x="230" y="390" as="sourcePoint" />
            <mxPoint x="280" y="340" as="targetPoint" />
          </mxGeometry>
        </mxCell>
        <mxCell id="YKiGXNoE6KG7aFmrv9Qk-17" value="" style="endArrow=classic;html=1;rounded=0;fontSize=12;startSize=8;endSize=8;curved=1;exitX=0;exitY=0.75;exitDx=0;exitDy=0;entryX=0.5;entryY=0;entryDx=0;entryDy=0;" edge="1" parent="1" source="YKiGXNoE6KG7aFmrv9Qk-11" target="YKiGXNoE6KG7aFmrv9Qk-14">
          <mxGeometry width="50" height="50" relative="1" as="geometry">
            <mxPoint x="230" y="270" as="sourcePoint" />
            <mxPoint x="280" y="220" as="targetPoint" />
          </mxGeometry>
        </mxCell>
        <mxCell id="YKiGXNoE6KG7aFmrv9Qk-18" value="" style="endArrow=classic;html=1;rounded=0;fontSize=12;startSize=8;endSize=8;curved=1;exitX=1;exitY=0.75;exitDx=0;exitDy=0;entryX=0.5;entryY=0;entryDx=0;entryDy=0;" edge="1" parent="1" source="YKiGXNoE6KG7aFmrv9Qk-11" target="YKiGXNoE6KG7aFmrv9Qk-15">
          <mxGeometry width="50" height="50" relative="1" as="geometry">
            <mxPoint x="370" y="240" as="sourcePoint" />
            <mxPoint x="420" y="190" as="targetPoint" />
          </mxGeometry>
        </mxCell>
        <mxCell id="YKiGXNoE6KG7aFmrv9Qk-23" value="The user corrects&lt;div&gt;&amp;nbsp;the input&lt;/div&gt;" style="text;html=1;align=center;verticalAlign=middle;resizable=0;points=[];autosize=1;strokeColor=none;fillColor=none;fontSize=16;" vertex="1" parent="1">
          <mxGeometry x="50" y="200" width="150" height="50" as="geometry" />
        </mxCell>
        <mxCell id="YKiGXNoE6KG7aFmrv9Qk-31" value="The user selects&lt;div&gt;&quot;Cancel&quot;&lt;/div&gt;" style="text;html=1;align=center;verticalAlign=middle;resizable=0;points=[];autosize=1;strokeColor=none;fillColor=none;fontSize=16;" vertex="1" parent="1">
          <mxGeometry x="330" y="200" width="140" height="50" as="geometry" />
        </mxCell>
        <mxCell id="YKiGXNoE6KG7aFmrv9Qk-32" value="MeinMenu" style="rounded=1;whiteSpace=wrap;html=1;absoluteArcSize=1;arcSize=14;strokeWidth=2;" vertex="1" parent="1">
          <mxGeometry x="440" y="440" width="80" height="40" as="geometry" />
        </mxCell>
        <mxCell id="YKiGXNoE6KG7aFmrv9Qk-33" value="" style="endArrow=classic;html=1;rounded=0;fontSize=12;startSize=8;endSize=8;curved=1;exitX=0.5;exitY=1;exitDx=0;exitDy=0;exitPerimeter=0;entryX=0.5;entryY=0;entryDx=0;entryDy=0;" edge="1" parent="1" source="YKiGXNoE6KG7aFmrv9Qk-2" target="YKiGXNoE6KG7aFmrv9Qk-3">
          <mxGeometry width="50" height="50" relative="1" as="geometry">
            <mxPoint x="410" y="370" as="sourcePoint" />
            <mxPoint x="460" y="320" as="targetPoint" />
          </mxGeometry>
        </mxCell>
        <mxCell id="YKiGXNoE6KG7aFmrv9Qk-36" value="" style="endArrow=classic;html=1;rounded=0;fontSize=12;startSize=8;endSize=8;curved=0;exitX=0.5;exitY=1;exitDx=0;exitDy=0;entryX=0.5;entryY=0;entryDx=0;entryDy=0;" edge="1" parent="1" source="YKiGXNoE6KG7aFmrv9Qk-15" target="YKiGXNoE6KG7aFmrv9Qk-32">
          <mxGeometry width="50" height="50" relative="1" as="geometry">
            <mxPoint x="470" y="460" as="sourcePoint" />
            <mxPoint x="520" y="410" as="targetPoint" />
            <Array as="points">
              <mxPoint x="400" y="400" />
              <mxPoint x="480" y="400" />
            </Array>
          </mxGeometry>
        </mxCell>
        <mxCell id="YKiGXNoE6KG7aFmrv9Qk-37" value="" style="endArrow=classic;html=1;rounded=0;fontSize=12;startSize=8;endSize=8;curved=0;exitX=0.5;exitY=1;exitDx=0;exitDy=0;entryX=0.5;entryY=0;entryDx=0;entryDy=0;" edge="1" parent="1" source="YKiGXNoE6KG7aFmrv9Qk-3" target="YKiGXNoE6KG7aFmrv9Qk-32">
          <mxGeometry width="50" height="50" relative="1" as="geometry">
            <mxPoint x="590" y="350" as="sourcePoint" />
            <mxPoint x="640" y="300" as="targetPoint" />
            <Array as="points">
              <mxPoint x="580" y="400" />
              <mxPoint x="480" y="400" />
            </Array>
          </mxGeometry>
        </mxCell>
        <mxCell id="YKiGXNoE6KG7aFmrv9Qk-38" value="ViewFavorites" style="swimlane;childLayout=stackLayout;horizontal=1;startSize=40;horizontalStack=0;rounded=1;fontSize=14;fontStyle=0;strokeWidth=2;resizeParent=0;resizeLast=1;shadow=0;dashed=0;align=center;arcSize=4;whiteSpace=wrap;html=1;" vertex="1" parent="1">
          <mxGeometry x="280" y="600" width="520" height="480" as="geometry" />
        </mxCell>
        <mxCell id="YKiGXNoE6KG7aFmrv9Qk-39" value="SearchContent&lt;span style=&quot;color: rgba(0, 0, 0, 0); font-family: monospace; font-size: 0px; text-align: start; text-wrap-mode: nowrap;&quot;&gt;%3CmxGraphModel%3E%3Croot%3E%3CmxCell%20id%3D%220%22%2F%3E%3CmxCell%20id%3D%221%22%20parent%3D%220%22%2F%3E%3CmxCell%20id%3D%222%22%20value%3D%22ErrorHandling%22%20style%3D%22swimlane%3BchildLayout%3DstackLayout%3Bhorizontal%3D1%3BstartSize%3D40%3BhorizontalStack%3D0%3Brounded%3D1%3BfontSize%3D14%3BfontStyle%3D0%3BstrokeWidth%3D2%3BresizeParent%3D0%3BresizeLast%3D1%3Bshadow%3D0%3Bdashed%3D0%3Balign%3Dcenter%3BarcSize%3D4%3BwhiteSpace%3Dwrap%3Bhtml%3D1%3B%22%20vertex%3D%221%22%20parent%3D%221%22%3E%3CmxGeometry%20x%3D%2240%22%20y%3D%2240%22%20width%3D%22440%22%20height%3D%22320%22%20as%3D%22geometry%22%2F%3E%3C%2FmxCell%3E%3C%2Froot%3E%3C%2FmxGraphModel%3E&lt;/span&gt;" style="swimlane;childLayout=stackLayout;horizontal=1;startSize=40;horizontalStack=0;rounded=1;fontSize=14;fontStyle=0;strokeWidth=2;resizeParent=0;resizeLast=1;shadow=0;dashed=0;align=center;arcSize=4;whiteSpace=wrap;html=1;" vertex="1" parent="1">
          <mxGeometry x="-760" y="600" width="880" height="840" as="geometry" />
        </mxCell>
        <mxCell id="YKiGXNoE6KG7aFmrv9Qk-40" value="ManageNotes" style="swimlane;childLayout=stackLayout;horizontal=1;startSize=40;horizontalStack=0;rounded=1;fontSize=14;fontStyle=0;strokeWidth=2;resizeParent=0;resizeLast=1;shadow=0;dashed=0;align=center;arcSize=4;whiteSpace=wrap;html=1;" vertex="1" parent="1">
          <mxGeometry x="880" y="600" width="760" height="640" as="geometry" />
        </mxCell>
        <mxCell id="YKiGXNoE6KG7aFmrv9Qk-41" value="ListFavorites" style="rounded=1;whiteSpace=wrap;html=1;absoluteArcSize=1;arcSize=14;strokeWidth=2;" vertex="1" parent="1">
          <mxGeometry x="620" y="760" width="80" height="40" as="geometry" />
        </mxCell>
        <mxCell id="YKiGXNoE6KG7aFmrv9Qk-42" value="" style="strokeWidth=2;html=1;shape=mxgraph.flowchart.start_2;whiteSpace=wrap;" vertex="1" parent="1">
          <mxGeometry x="640" y="640" width="40" height="40" as="geometry" />
        </mxCell>
        <mxCell id="YKiGXNoE6KG7aFmrv9Qk-43" value="" style="endArrow=classic;html=1;rounded=0;fontSize=12;startSize=8;endSize=8;curved=1;exitX=0.5;exitY=1;exitDx=0;exitDy=0;exitPerimeter=0;entryX=0.5;entryY=0;entryDx=0;entryDy=0;" edge="1" parent="1" source="YKiGXNoE6KG7aFmrv9Qk-42" target="YKiGXNoE6KG7aFmrv9Qk-41">
          <mxGeometry width="50" height="50" relative="1" as="geometry">
            <mxPoint x="570" y="860" as="sourcePoint" />
            <mxPoint x="620" y="810" as="targetPoint" />
          </mxGeometry>
        </mxCell>
        <mxCell id="YKiGXNoE6KG7aFmrv9Qk-44" value="FavoriteContentDetails" style="rounded=1;whiteSpace=wrap;html=1;absoluteArcSize=1;arcSize=14;strokeWidth=2;" vertex="1" parent="1">
          <mxGeometry x="590" y="880" width="140" height="40" as="geometry" />
        </mxCell>
        <mxCell id="YKiGXNoE6KG7aFmrv9Qk-45" value="BackToFavorites" style="rounded=1;whiteSpace=wrap;html=1;absoluteArcSize=1;arcSize=14;strokeWidth=2;" vertex="1" parent="1">
          <mxGeometry x="610" y="1000" width="100" height="40" as="geometry" />
        </mxCell>
        <mxCell id="YKiGXNoE6KG7aFmrv9Qk-46" value="RemoveFavorite" style="rounded=1;whiteSpace=wrap;html=1;absoluteArcSize=1;arcSize=14;strokeWidth=2;" vertex="1" parent="1">
          <mxGeometry x="390" y="1000" width="100" height="40" as="geometry" />
        </mxCell>
        <mxCell id="YKiGXNoE6KG7aFmrv9Qk-48" value="" style="endArrow=classic;html=1;rounded=0;fontSize=12;startSize=8;endSize=8;curved=1;exitX=0.5;exitY=1;exitDx=0;exitDy=0;entryX=0.5;entryY=0;entryDx=0;entryDy=0;" edge="1" parent="1" source="YKiGXNoE6KG7aFmrv9Qk-41" target="YKiGXNoE6KG7aFmrv9Qk-44">
          <mxGeometry width="50" height="50" relative="1" as="geometry">
            <mxPoint x="460" y="780" as="sourcePoint" />
            <mxPoint x="460" y="860" as="targetPoint" />
          </mxGeometry>
        </mxCell>
        <mxCell id="YKiGXNoE6KG7aFmrv9Qk-49" value="" style="endArrow=classic;html=1;rounded=0;fontSize=12;startSize=8;endSize=8;curved=1;exitX=0.5;exitY=1;exitDx=0;exitDy=0;entryX=0.5;entryY=0;entryDx=0;entryDy=0;" edge="1" parent="1" source="YKiGXNoE6KG7aFmrv9Qk-44" target="YKiGXNoE6KG7aFmrv9Qk-45">
          <mxGeometry width="50" height="50" relative="1" as="geometry">
            <mxPoint x="590" y="1020" as="sourcePoint" />
            <mxPoint x="590" y="1100" as="targetPoint" />
          </mxGeometry>
        </mxCell>
        <mxCell id="YKiGXNoE6KG7aFmrv9Qk-50" value="" style="endArrow=classic;html=1;rounded=0;fontSize=12;startSize=8;endSize=8;curved=0;exitX=1;exitY=0.5;exitDx=0;exitDy=0;entryX=1;entryY=0.5;entryDx=0;entryDy=0;" edge="1" parent="1" source="YKiGXNoE6KG7aFmrv9Qk-45" target="YKiGXNoE6KG7aFmrv9Qk-41">
          <mxGeometry width="50" height="50" relative="1" as="geometry">
            <mxPoint x="750" y="1000" as="sourcePoint" />
            <mxPoint x="750" y="1080" as="targetPoint" />
            <Array as="points">
              <mxPoint x="760" y="1020" />
              <mxPoint x="760" y="780" />
            </Array>
          </mxGeometry>
        </mxCell>
        <mxCell id="YKiGXNoE6KG7aFmrv9Qk-51" value="The user selects&lt;div&gt;the content&lt;/div&gt;" style="text;html=1;align=center;verticalAlign=middle;resizable=0;points=[];autosize=1;strokeColor=none;fillColor=none;fontSize=16;" vertex="1" parent="1">
          <mxGeometry x="520" y="810" width="140" height="50" as="geometry" />
        </mxCell>
        <mxCell id="YKiGXNoE6KG7aFmrv9Qk-52" value="The user selects&lt;div&gt;&quot;Back&quot;&lt;/div&gt;" style="text;html=1;align=center;verticalAlign=middle;resizable=0;points=[];autosize=1;strokeColor=none;fillColor=none;fontSize=16;" vertex="1" parent="1">
          <mxGeometry x="520" y="930" width="140" height="50" as="geometry" />
        </mxCell>
        <mxCell id="YKiGXNoE6KG7aFmrv9Qk-53" value="" style="endArrow=classic;html=1;rounded=0;fontSize=12;startSize=8;endSize=8;curved=0;exitX=0;exitY=0.5;exitDx=0;exitDy=0;entryX=0.5;entryY=0;entryDx=0;entryDy=0;" edge="1" parent="1" source="YKiGXNoE6KG7aFmrv9Qk-44" target="YKiGXNoE6KG7aFmrv9Qk-46">
          <mxGeometry width="50" height="50" relative="1" as="geometry">
            <mxPoint x="280" y="1120" as="sourcePoint" />
            <mxPoint x="270" y="880" as="targetPoint" />
            <Array as="points">
              <mxPoint x="440" y="900" />
            </Array>
          </mxGeometry>
        </mxCell>
        <mxCell id="YKiGXNoE6KG7aFmrv9Qk-54" value="The user selects&lt;div&gt;&quot;Delete&quot;&lt;/div&gt;" style="text;html=1;align=center;verticalAlign=middle;resizable=0;points=[];autosize=1;strokeColor=none;fillColor=none;fontSize=16;" vertex="1" parent="1">
          <mxGeometry x="300" y="930" width="140" height="50" as="geometry" />
        </mxCell>
        <mxCell id="YKiGXNoE6KG7aFmrv9Qk-55" value="" style="endArrow=classic;html=1;rounded=0;fontSize=12;startSize=8;endSize=8;curved=0;exitX=0;exitY=0.5;exitDx=0;exitDy=0;entryX=0;entryY=0.5;entryDx=0;entryDy=0;" edge="1" parent="1" source="YKiGXNoE6KG7aFmrv9Qk-46" target="YKiGXNoE6KG7aFmrv9Qk-32">
          <mxGeometry width="50" height="50" relative="1" as="geometry">
            <mxPoint x="360" y="700" as="sourcePoint" />
            <mxPoint x="210" y="800" as="targetPoint" />
            <Array as="points">
              <mxPoint x="300" y="1020" />
              <mxPoint x="300" y="460" />
            </Array>
          </mxGeometry>
        </mxCell>
        <mxCell id="YKiGXNoE6KG7aFmrv9Qk-56" value="" style="endArrow=classic;html=1;rounded=0;fontSize=12;startSize=8;endSize=8;curved=0;exitX=0.5;exitY=1;exitDx=0;exitDy=0;entryX=0.5;entryY=0;entryDx=0;entryDy=0;" edge="1" parent="1" source="YKiGXNoE6KG7aFmrv9Qk-32" target="YKiGXNoE6KG7aFmrv9Qk-38">
          <mxGeometry width="50" height="50" relative="1" as="geometry">
            <mxPoint x="600" y="480" as="sourcePoint" />
            <mxPoint x="660" y="560" as="targetPoint" />
            <Array as="points">
              <mxPoint x="480" y="520" />
              <mxPoint x="540" y="520" />
            </Array>
          </mxGeometry>
        </mxCell>
        <mxCell id="YKiGXNoE6KG7aFmrv9Qk-57" value="The user selects&lt;div&gt;&quot;Favorites&quot;&lt;/div&gt;" style="text;html=1;align=center;verticalAlign=middle;resizable=0;points=[];autosize=1;strokeColor=none;fillColor=none;fontSize=16;" vertex="1" parent="1">
          <mxGeometry x="400" y="535" width="140" height="50" as="geometry" />
        </mxCell>
        <mxCell id="YKiGXNoE6KG7aFmrv9Qk-58" value="The bot&lt;div&gt;is running&lt;/div&gt;" style="text;html=1;align=center;verticalAlign=middle;resizable=0;points=[];autosize=1;strokeColor=none;fillColor=none;fontSize=16;" vertex="1" parent="1">
          <mxGeometry x="580" y="310" width="90" height="50" as="geometry" />
        </mxCell>
        <mxCell id="YKiGXNoE6KG7aFmrv9Qk-59" value="" style="strokeWidth=2;html=1;shape=mxgraph.flowchart.start_2;whiteSpace=wrap;" vertex="1" parent="1">
          <mxGeometry x="960" y="640" width="40" height="40" as="geometry" />
        </mxCell>
        <mxCell id="YKiGXNoE6KG7aFmrv9Qk-60" value="ListNoteCategories" style="rounded=1;whiteSpace=wrap;html=1;absoluteArcSize=1;arcSize=14;strokeWidth=2;" vertex="1" parent="1">
          <mxGeometry x="920" y="760" width="120" height="40" as="geometry" />
        </mxCell>
        <mxCell id="YKiGXNoE6KG7aFmrv9Qk-61" value="CreateNewNote" style="rounded=1;whiteSpace=wrap;html=1;absoluteArcSize=1;arcSize=14;strokeWidth=2;" vertex="1" parent="1">
          <mxGeometry x="930" y="880" width="100" height="40" as="geometry" />
        </mxCell>
        <mxCell id="YKiGXNoE6KG7aFmrv9Qk-62" value="EnterNoteText" style="rounded=1;whiteSpace=wrap;html=1;absoluteArcSize=1;arcSize=14;strokeWidth=2;" vertex="1" parent="1">
          <mxGeometry x="930" y="1000" width="100" height="40" as="geometry" />
        </mxCell>
        <mxCell id="YKiGXNoE6KG7aFmrv9Qk-63" value="SaveNote" style="rounded=1;whiteSpace=wrap;html=1;absoluteArcSize=1;arcSize=14;strokeWidth=2;" vertex="1" parent="1">
          <mxGeometry x="940" y="1120" width="80" height="40" as="geometry" />
        </mxCell>
        <mxCell id="YKiGXNoE6KG7aFmrv9Qk-64" value="" style="endArrow=classic;html=1;rounded=0;fontSize=12;startSize=8;endSize=8;curved=0;exitX=0.5;exitY=1;exitDx=0;exitDy=0;entryX=0.5;entryY=0;entryDx=0;entryDy=0;exitPerimeter=0;" edge="1" parent="1" source="YKiGXNoE6KG7aFmrv9Qk-59" target="YKiGXNoE6KG7aFmrv9Qk-60">
          <mxGeometry width="50" height="50" relative="1" as="geometry">
            <mxPoint x="1080" y="890" as="sourcePoint" />
            <mxPoint x="1070" y="650" as="targetPoint" />
            <Array as="points" />
          </mxGeometry>
        </mxCell>
        <mxCell id="YKiGXNoE6KG7aFmrv9Qk-65" value="" style="endArrow=classic;html=1;rounded=0;fontSize=12;startSize=8;endSize=8;curved=0;entryX=0.5;entryY=0;entryDx=0;entryDy=0;exitX=0.5;exitY=1;exitDx=0;exitDy=0;" edge="1" parent="1" source="YKiGXNoE6KG7aFmrv9Qk-60" target="YKiGXNoE6KG7aFmrv9Qk-61">
          <mxGeometry width="50" height="50" relative="1" as="geometry">
            <mxPoint x="1060" y="980" as="sourcePoint" />
            <mxPoint x="1060" y="890" as="targetPoint" />
            <Array as="points" />
          </mxGeometry>
        </mxCell>
        <mxCell id="YKiGXNoE6KG7aFmrv9Qk-66" value="" style="endArrow=classic;html=1;rounded=0;fontSize=12;startSize=8;endSize=8;curved=0;exitX=0.5;exitY=1;exitDx=0;exitDy=0;entryX=0.5;entryY=0;entryDx=0;entryDy=0;" edge="1" parent="1" source="YKiGXNoE6KG7aFmrv9Qk-61" target="YKiGXNoE6KG7aFmrv9Qk-62">
          <mxGeometry width="50" height="50" relative="1" as="geometry">
            <mxPoint x="1020" y="1040" as="sourcePoint" />
            <mxPoint x="1020" y="950" as="targetPoint" />
            <Array as="points" />
          </mxGeometry>
        </mxCell>
        <mxCell id="YKiGXNoE6KG7aFmrv9Qk-67" value="" style="endArrow=classic;html=1;rounded=0;fontSize=12;startSize=8;endSize=8;curved=0;entryX=0.5;entryY=0;entryDx=0;entryDy=0;exitX=0.5;exitY=1;exitDx=0;exitDy=0;" edge="1" parent="1" source="YKiGXNoE6KG7aFmrv9Qk-62" target="YKiGXNoE6KG7aFmrv9Qk-63">
          <mxGeometry width="50" height="50" relative="1" as="geometry">
            <mxPoint x="1050" y="1130" as="sourcePoint" />
            <mxPoint x="1050" y="1040" as="targetPoint" />
            <Array as="points" />
          </mxGeometry>
        </mxCell>
        <mxCell id="YKiGXNoE6KG7aFmrv9Qk-68" value="List Notes" style="rounded=1;whiteSpace=wrap;html=1;absoluteArcSize=1;arcSize=14;strokeWidth=2;" vertex="1" parent="1">
          <mxGeometry x="1320" y="880" width="80" height="40" as="geometry" />
        </mxCell>
        <mxCell id="YKiGXNoE6KG7aFmrv9Qk-69" value="BackToNotes" style="rounded=1;whiteSpace=wrap;html=1;absoluteArcSize=1;arcSize=14;strokeWidth=2;" vertex="1" parent="1">
          <mxGeometry x="1180" y="1120" width="80" height="40" as="geometry" />
        </mxCell>
        <mxCell id="YKiGXNoE6KG7aFmrv9Qk-70" value="DeleteNote" style="rounded=1;whiteSpace=wrap;html=1;absoluteArcSize=1;arcSize=14;strokeWidth=2;" vertex="1" parent="1">
          <mxGeometry x="1320" y="1120" width="80" height="40" as="geometry" />
        </mxCell>
        <mxCell id="YKiGXNoE6KG7aFmrv9Qk-71" value="NoteDetails" style="rounded=1;whiteSpace=wrap;html=1;absoluteArcSize=1;arcSize=14;strokeWidth=2;" vertex="1" parent="1">
          <mxGeometry x="1320" y="1000" width="80" height="40" as="geometry" />
        </mxCell>
        <mxCell id="YKiGXNoE6KG7aFmrv9Qk-72" value="EditNote" style="rounded=1;whiteSpace=wrap;html=1;absoluteArcSize=1;arcSize=14;strokeWidth=2;" vertex="1" parent="1">
          <mxGeometry x="1467" y="1120" width="80" height="40" as="geometry" />
        </mxCell>
        <mxCell id="YKiGXNoE6KG7aFmrv9Qk-73" value="" style="endArrow=classic;html=1;rounded=0;fontSize=12;startSize=8;endSize=8;curved=0;exitX=1;exitY=0.5;exitDx=0;exitDy=0;entryX=0.5;entryY=0;entryDx=0;entryDy=0;" edge="1" parent="1" source="YKiGXNoE6KG7aFmrv9Qk-60" target="YKiGXNoE6KG7aFmrv9Qk-68">
          <mxGeometry width="50" height="50" relative="1" as="geometry">
            <mxPoint x="1130" y="720" as="sourcePoint" />
            <mxPoint x="1130" y="800" as="targetPoint" />
            <Array as="points">
              <mxPoint x="1360" y="780" />
            </Array>
          </mxGeometry>
        </mxCell>
        <mxCell id="YKiGXNoE6KG7aFmrv9Qk-74" value="" style="endArrow=classic;html=1;rounded=0;fontSize=12;startSize=8;endSize=8;curved=0;exitX=0.5;exitY=1;exitDx=0;exitDy=0;entryX=0.5;entryY=0;entryDx=0;entryDy=0;" edge="1" parent="1" source="YKiGXNoE6KG7aFmrv9Qk-68" target="YKiGXNoE6KG7aFmrv9Qk-71">
          <mxGeometry width="50" height="50" relative="1" as="geometry">
            <mxPoint x="1270" y="960" as="sourcePoint" />
            <mxPoint x="1270" y="1040" as="targetPoint" />
            <Array as="points" />
          </mxGeometry>
        </mxCell>
        <mxCell id="YKiGXNoE6KG7aFmrv9Qk-75" value="" style="endArrow=classic;html=1;rounded=0;fontSize=12;startSize=8;endSize=8;curved=0;entryX=0.5;entryY=0;entryDx=0;entryDy=0;exitX=0;exitY=0.5;exitDx=0;exitDy=0;" edge="1" parent="1" source="YKiGXNoE6KG7aFmrv9Qk-71" target="YKiGXNoE6KG7aFmrv9Qk-69">
          <mxGeometry width="50" height="50" relative="1" as="geometry">
            <mxPoint x="1270" y="910" as="sourcePoint" />
            <mxPoint x="1197" y="1080" as="targetPoint" />
            <Array as="points" />
          </mxGeometry>
        </mxCell>
        <mxCell id="YKiGXNoE6KG7aFmrv9Qk-76" value="" style="endArrow=classic;html=1;rounded=0;fontSize=12;startSize=8;endSize=8;curved=0;exitX=0.5;exitY=1;exitDx=0;exitDy=0;entryX=0.5;entryY=0;entryDx=0;entryDy=0;" edge="1" parent="1" source="YKiGXNoE6KG7aFmrv9Qk-71" target="YKiGXNoE6KG7aFmrv9Qk-70">
          <mxGeometry width="50" height="50" relative="1" as="geometry">
            <mxPoint x="1370" y="1090" as="sourcePoint" />
            <mxPoint x="1370" y="1170" as="targetPoint" />
            <Array as="points" />
          </mxGeometry>
        </mxCell>
        <mxCell id="YKiGXNoE6KG7aFmrv9Qk-77" value="" style="endArrow=classic;html=1;rounded=0;fontSize=12;startSize=8;endSize=8;curved=0;exitX=1;exitY=0.5;exitDx=0;exitDy=0;entryX=0.5;entryY=0;entryDx=0;entryDy=0;" edge="1" parent="1" source="YKiGXNoE6KG7aFmrv9Qk-71" target="YKiGXNoE6KG7aFmrv9Qk-72">
          <mxGeometry width="50" height="50" relative="1" as="geometry">
            <mxPoint x="1490" y="1060" as="sourcePoint" />
            <mxPoint x="1490" y="1140" as="targetPoint" />
            <Array as="points" />
          </mxGeometry>
        </mxCell>
        <mxCell id="YKiGXNoE6KG7aFmrv9Qk-78" value="" style="endArrow=classic;html=1;rounded=0;fontSize=12;startSize=8;endSize=8;curved=0;exitX=0;exitY=0.5;exitDx=0;exitDy=0;entryX=0;entryY=0.5;entryDx=0;entryDy=0;" edge="1" parent="1" source="YKiGXNoE6KG7aFmrv9Qk-69" target="YKiGXNoE6KG7aFmrv9Qk-68">
          <mxGeometry width="50" height="50" relative="1" as="geometry">
            <mxPoint x="1130" y="1110" as="sourcePoint" />
            <mxPoint x="1130" y="1190" as="targetPoint" />
            <Array as="points">
              <mxPoint x="1160" y="1140" />
              <mxPoint x="1160" y="900" />
            </Array>
          </mxGeometry>
        </mxCell>
        <mxCell id="YKiGXNoE6KG7aFmrv9Qk-79" value="" style="endArrow=classic;html=1;rounded=0;fontSize=12;startSize=8;endSize=8;curved=0;exitX=0.5;exitY=1;exitDx=0;exitDy=0;entryX=1;entryY=0.5;entryDx=0;entryDy=0;" edge="1" parent="1" source="YKiGXNoE6KG7aFmrv9Qk-70" target="YKiGXNoE6KG7aFmrv9Qk-32">
          <mxGeometry width="50" height="50" relative="1" as="geometry">
            <mxPoint x="1400" y="950" as="sourcePoint" />
            <mxPoint x="1400" y="1030" as="targetPoint" />
            <Array as="points">
              <mxPoint x="1360" y="1200" />
              <mxPoint x="1600" y="1200" />
              <mxPoint x="1600" y="460" />
            </Array>
          </mxGeometry>
        </mxCell>
        <mxCell id="YKiGXNoE6KG7aFmrv9Qk-80" value="" style="endArrow=classic;html=1;rounded=0;fontSize=12;startSize=8;endSize=8;curved=0;exitX=0.5;exitY=1;exitDx=0;exitDy=0;entryX=1;entryY=0.5;entryDx=0;entryDy=0;" edge="1" parent="1" source="YKiGXNoE6KG7aFmrv9Qk-72" target="YKiGXNoE6KG7aFmrv9Qk-32">
          <mxGeometry width="50" height="50" relative="1" as="geometry">
            <mxPoint x="1280" y="920" as="sourcePoint" />
            <mxPoint x="1280" y="1000" as="targetPoint" />
            <Array as="points">
              <mxPoint x="1507" y="1200" />
              <mxPoint x="1600" y="1200" />
              <mxPoint x="1600" y="460" />
            </Array>
          </mxGeometry>
        </mxCell>
        <mxCell id="YKiGXNoE6KG7aFmrv9Qk-81" value="" style="endArrow=classic;html=1;rounded=0;fontSize=12;startSize=8;endSize=8;curved=0;exitX=0;exitY=0.5;exitDx=0;exitDy=0;entryX=1;entryY=0.5;entryDx=0;entryDy=0;" edge="1" parent="1" source="YKiGXNoE6KG7aFmrv9Qk-63" target="YKiGXNoE6KG7aFmrv9Qk-32">
          <mxGeometry width="50" height="50" relative="1" as="geometry">
            <mxPoint x="730" y="1240" as="sourcePoint" />
            <mxPoint x="730" y="1320" as="targetPoint" />
            <Array as="points">
              <mxPoint x="900" y="1140" />
              <mxPoint x="900" y="460" />
            </Array>
          </mxGeometry>
        </mxCell>
        <mxCell id="YKiGXNoE6KG7aFmrv9Qk-82" value="The user selects&lt;div&gt;&quot;Create a new one&quot;&lt;/div&gt;" style="text;html=1;align=center;verticalAlign=middle;resizable=0;points=[];autosize=1;strokeColor=none;fillColor=none;fontSize=16;" vertex="1" parent="1">
          <mxGeometry x="980" y="810" width="160" height="50" as="geometry" />
        </mxCell>
        <mxCell id="YKiGXNoE6KG7aFmrv9Qk-84" value="The user selects&lt;div&gt;a category&lt;/div&gt;" style="text;html=1;align=center;verticalAlign=middle;resizable=0;points=[];autosize=1;strokeColor=none;fillColor=none;fontSize=16;" vertex="1" parent="1">
          <mxGeometry x="980" y="930" width="140" height="50" as="geometry" />
        </mxCell>
        <mxCell id="YKiGXNoE6KG7aFmrv9Qk-85" value="The user enters&lt;div&gt;the text&lt;/div&gt;" style="text;html=1;align=center;verticalAlign=middle;resizable=0;points=[];autosize=1;strokeColor=none;fillColor=none;fontSize=16;" vertex="1" parent="1">
          <mxGeometry x="980" y="1050" width="140" height="50" as="geometry" />
        </mxCell>
        <mxCell id="YKiGXNoE6KG7aFmrv9Qk-86" value="The user selects&lt;div&gt;a category&lt;/div&gt;" style="text;html=1;align=center;verticalAlign=middle;resizable=0;points=[];autosize=1;strokeColor=none;fillColor=none;fontSize=16;" vertex="1" parent="1">
          <mxGeometry x="1221" y="730" width="140" height="50" as="geometry" />
        </mxCell>
        <mxCell id="YKiGXNoE6KG7aFmrv9Qk-87" value="The user selects&lt;div&gt;a note&lt;/div&gt;" style="text;html=1;align=center;verticalAlign=middle;resizable=0;points=[];autosize=1;strokeColor=none;fillColor=none;fontSize=16;" vertex="1" parent="1">
          <mxGeometry x="1361" y="930" width="140" height="50" as="geometry" />
        </mxCell>
        <mxCell id="YKiGXNoE6KG7aFmrv9Qk-89" value="The user selects&lt;div&gt;&quot;Back&quot;&lt;/div&gt;" style="text;html=1;align=center;verticalAlign=middle;resizable=0;points=[];autosize=1;strokeColor=none;fillColor=none;fontSize=16;" vertex="1" parent="1">
          <mxGeometry x="1160" y="1030" width="140" height="50" as="geometry" />
        </mxCell>
        <mxCell id="YKiGXNoE6KG7aFmrv9Qk-90" value="The user selects&lt;div&gt;&quot;Delete&quot;&lt;/div&gt;" style="text;html=1;align=center;verticalAlign=middle;resizable=0;points=[];autosize=1;strokeColor=none;fillColor=none;fontSize=16;" vertex="1" parent="1">
          <mxGeometry x="1290" y="1060" width="140" height="50" as="geometry" />
        </mxCell>
        <mxCell id="YKiGXNoE6KG7aFmrv9Qk-91" value="The user selects&lt;div&gt;&quot;Edit&quot;&lt;/div&gt;" style="text;html=1;align=center;verticalAlign=middle;resizable=0;points=[];autosize=1;strokeColor=none;fillColor=none;fontSize=16;" vertex="1" parent="1">
          <mxGeometry x="1430" y="1030" width="140" height="50" as="geometry" />
        </mxCell>
        <mxCell id="YKiGXNoE6KG7aFmrv9Qk-93" value="" style="endArrow=classic;html=1;rounded=0;fontSize=12;startSize=8;endSize=8;curved=0;exitX=0.5;exitY=1;exitDx=0;exitDy=0;entryX=0.5;entryY=0;entryDx=0;entryDy=0;" edge="1" parent="1" source="YKiGXNoE6KG7aFmrv9Qk-32" target="YKiGXNoE6KG7aFmrv9Qk-40">
          <mxGeometry width="50" height="50" relative="1" as="geometry">
            <mxPoint x="600" y="480" as="sourcePoint" />
            <mxPoint x="730" y="620" as="targetPoint" />
            <Array as="points">
              <mxPoint x="480" y="520" />
              <mxPoint x="1260" y="520" />
            </Array>
          </mxGeometry>
        </mxCell>
        <mxCell id="YKiGXNoE6KG7aFmrv9Qk-94" value="The user selects&lt;div&gt;&quot;Notes&quot;&lt;/div&gt;" style="text;html=1;align=center;verticalAlign=middle;resizable=0;points=[];autosize=1;strokeColor=none;fillColor=none;fontSize=16;" vertex="1" parent="1">
          <mxGeometry x="1120" y="535" width="140" height="50" as="geometry" />
        </mxCell>
        <mxCell id="YKiGXNoE6KG7aFmrv9Qk-95" value="" style="strokeWidth=2;html=1;shape=mxgraph.flowchart.start_2;whiteSpace=wrap;" vertex="1" parent="1">
          <mxGeometry x="-240" y="640" width="40" height="40" as="geometry" />
        </mxCell>
        <mxCell id="YKiGXNoE6KG7aFmrv9Qk-96" value="EnterQuery" style="rounded=1;whiteSpace=wrap;html=1;absoluteArcSize=1;arcSize=14;strokeWidth=2;" vertex="1" parent="1">
          <mxGeometry x="-260" y="760" width="80" height="40" as="geometry" />
        </mxCell>
        <mxCell id="YKiGXNoE6KG7aFmrv9Qk-97" value="ApplyFilter" style="rounded=1;whiteSpace=wrap;html=1;absoluteArcSize=1;arcSize=14;strokeWidth=2;" vertex="1" parent="1">
          <mxGeometry x="-260" y="880" width="80" height="40" as="geometry" />
        </mxCell>
        <mxCell id="YKiGXNoE6KG7aFmrv9Qk-98" value="SelectFilterType" style="rounded=1;whiteSpace=wrap;html=1;absoluteArcSize=1;arcSize=14;strokeWidth=2;" vertex="1" parent="1">
          <mxGeometry x="-270" y="1000" width="100" height="40" as="geometry" />
        </mxCell>
        <mxCell id="YKiGXNoE6KG7aFmrv9Qk-99" value="EnterFilterValue" style="rounded=1;whiteSpace=wrap;html=1;absoluteArcSize=1;arcSize=14;strokeWidth=2;" vertex="1" parent="1">
          <mxGeometry x="-270" y="1120" width="100" height="40" as="geometry" />
        </mxCell>
        <mxCell id="YKiGXNoE6KG7aFmrv9Qk-100" value="" style="endArrow=classic;html=1;rounded=0;fontSize=12;startSize=8;endSize=8;curved=1;exitX=0.5;exitY=1;exitDx=0;exitDy=0;entryX=0.5;entryY=0;entryDx=0;entryDy=0;exitPerimeter=0;" edge="1" parent="1" source="YKiGXNoE6KG7aFmrv9Qk-95" target="YKiGXNoE6KG7aFmrv9Qk-96">
          <mxGeometry width="50" height="50" relative="1" as="geometry">
            <mxPoint x="-150" y="690" as="sourcePoint" />
            <mxPoint x="-150" y="770" as="targetPoint" />
          </mxGeometry>
        </mxCell>
        <mxCell id="YKiGXNoE6KG7aFmrv9Qk-101" value="" style="endArrow=classic;html=1;rounded=0;fontSize=12;startSize=8;endSize=8;curved=1;exitX=0.5;exitY=1;exitDx=0;exitDy=0;entryX=0.5;entryY=0;entryDx=0;entryDy=0;" edge="1" parent="1" source="YKiGXNoE6KG7aFmrv9Qk-96" target="YKiGXNoE6KG7aFmrv9Qk-97">
          <mxGeometry width="50" height="50" relative="1" as="geometry">
            <mxPoint x="-90" y="880" as="sourcePoint" />
            <mxPoint x="-90" y="960" as="targetPoint" />
          </mxGeometry>
        </mxCell>
        <mxCell id="YKiGXNoE6KG7aFmrv9Qk-102" value="" style="endArrow=classic;html=1;rounded=0;fontSize=12;startSize=8;endSize=8;curved=1;exitX=0.5;exitY=1;exitDx=0;exitDy=0;entryX=0.5;entryY=0;entryDx=0;entryDy=0;" edge="1" parent="1" source="YKiGXNoE6KG7aFmrv9Qk-97" target="YKiGXNoE6KG7aFmrv9Qk-98">
          <mxGeometry width="50" height="50" relative="1" as="geometry">
            <mxPoint x="-110" y="870" as="sourcePoint" />
            <mxPoint x="-160" y="970" as="targetPoint" />
          </mxGeometry>
        </mxCell>
        <mxCell id="YKiGXNoE6KG7aFmrv9Qk-103" value="" style="endArrow=classic;html=1;rounded=0;fontSize=12;startSize=8;endSize=8;curved=1;exitX=0.5;exitY=1;exitDx=0;exitDy=0;entryX=0.5;entryY=0;entryDx=0;entryDy=0;" edge="1" parent="1" source="YKiGXNoE6KG7aFmrv9Qk-98" target="YKiGXNoE6KG7aFmrv9Qk-99">
          <mxGeometry width="50" height="50" relative="1" as="geometry">
            <mxPoint x="-100" y="1010" as="sourcePoint" />
            <mxPoint x="-100" y="1090" as="targetPoint" />
          </mxGeometry>
        </mxCell>
        <mxCell id="YKiGXNoE6KG7aFmrv9Qk-104" value="" style="endArrow=classic;html=1;rounded=0;fontSize=12;startSize=8;endSize=8;curved=0;exitX=1;exitY=0.5;exitDx=0;exitDy=0;entryX=1;entryY=0.5;entryDx=0;entryDy=0;" edge="1" parent="1" source="YKiGXNoE6KG7aFmrv9Qk-99" target="YKiGXNoE6KG7aFmrv9Qk-97">
          <mxGeometry width="50" height="50" relative="1" as="geometry">
            <mxPoint x="-130" y="1120" as="sourcePoint" />
            <mxPoint x="-130" y="1200" as="targetPoint" />
            <Array as="points">
              <mxPoint x="-60" y="1140" />
              <mxPoint x="-60" y="900" />
            </Array>
          </mxGeometry>
        </mxCell>
        <mxCell id="YKiGXNoE6KG7aFmrv9Qk-105" value="ExecuteSearch" style="rounded=1;whiteSpace=wrap;html=1;absoluteArcSize=1;arcSize=14;strokeWidth=2;" vertex="1" parent="1">
          <mxGeometry x="-460" y="1000" width="100" height="40" as="geometry" />
        </mxCell>
        <mxCell id="YKiGXNoE6KG7aFmrv9Qk-106" value="DisplayResults" style="rounded=1;whiteSpace=wrap;html=1;absoluteArcSize=1;arcSize=14;strokeWidth=2;" vertex="1" parent="1">
          <mxGeometry x="-460" y="1120" width="100" height="40" as="geometry" />
        </mxCell>
        <mxCell id="YKiGXNoE6KG7aFmrv9Qk-107" value="ContentDetails" style="rounded=1;whiteSpace=wrap;html=1;absoluteArcSize=1;arcSize=14;strokeWidth=2;" vertex="1" parent="1">
          <mxGeometry x="-460" y="1240" width="100" height="40" as="geometry" />
        </mxCell>
        <mxCell id="YKiGXNoE6KG7aFmrv9Qk-108" value="BackToResults" style="rounded=1;whiteSpace=wrap;html=1;absoluteArcSize=1;arcSize=14;strokeWidth=2;" vertex="1" parent="1">
          <mxGeometry x="-460" y="1360" width="100" height="40" as="geometry" />
        </mxCell>
        <mxCell id="YKiGXNoE6KG7aFmrv9Qk-109" value="AddToFavorites" style="rounded=1;whiteSpace=wrap;html=1;absoluteArcSize=1;arcSize=14;strokeWidth=2;" vertex="1" parent="1">
          <mxGeometry x="-620" y="1360" width="100" height="40" as="geometry" />
        </mxCell>
        <mxCell id="YKiGXNoE6KG7aFmrv9Qk-110" value="" style="endArrow=classic;html=1;rounded=0;fontSize=12;startSize=8;endSize=8;curved=0;exitX=0;exitY=0.5;exitDx=0;exitDy=0;entryX=0.5;entryY=0;entryDx=0;entryDy=0;" edge="1" parent="1" source="YKiGXNoE6KG7aFmrv9Qk-97" target="YKiGXNoE6KG7aFmrv9Qk-105">
          <mxGeometry width="50" height="50" relative="1" as="geometry">
            <mxPoint x="-380" y="950" as="sourcePoint" />
            <mxPoint x="-380" y="860" as="targetPoint" />
            <Array as="points">
              <mxPoint x="-410" y="900" />
            </Array>
          </mxGeometry>
        </mxCell>
        <mxCell id="YKiGXNoE6KG7aFmrv9Qk-111" value="" style="endArrow=classic;html=1;rounded=0;fontSize=12;startSize=8;endSize=8;curved=0;exitX=0.5;exitY=1;exitDx=0;exitDy=0;entryX=0.5;entryY=0;entryDx=0;entryDy=0;" edge="1" parent="1" source="YKiGXNoE6KG7aFmrv9Qk-105" target="YKiGXNoE6KG7aFmrv9Qk-106">
          <mxGeometry width="50" height="50" relative="1" as="geometry">
            <mxPoint x="-500" y="1200" as="sourcePoint" />
            <mxPoint x="-500" y="1110" as="targetPoint" />
            <Array as="points" />
          </mxGeometry>
        </mxCell>
        <mxCell id="YKiGXNoE6KG7aFmrv9Qk-112" value="" style="endArrow=classic;html=1;rounded=0;fontSize=12;startSize=8;endSize=8;curved=0;exitX=0.5;exitY=1;exitDx=0;exitDy=0;entryX=0.5;entryY=0;entryDx=0;entryDy=0;" edge="1" parent="1" source="YKiGXNoE6KG7aFmrv9Qk-106" target="YKiGXNoE6KG7aFmrv9Qk-107">
          <mxGeometry width="50" height="50" relative="1" as="geometry">
            <mxPoint x="-220" y="1460" as="sourcePoint" />
            <mxPoint x="-220" y="1370" as="targetPoint" />
            <Array as="points" />
          </mxGeometry>
        </mxCell>
        <mxCell id="YKiGXNoE6KG7aFmrv9Qk-113" value="" style="endArrow=classic;html=1;rounded=0;fontSize=12;startSize=8;endSize=8;curved=0;exitX=0.5;exitY=1;exitDx=0;exitDy=0;entryX=0.5;entryY=0;entryDx=0;entryDy=0;" edge="1" parent="1" source="YKiGXNoE6KG7aFmrv9Qk-107" target="YKiGXNoE6KG7aFmrv9Qk-108">
          <mxGeometry width="50" height="50" relative="1" as="geometry">
            <mxPoint x="-580" y="1230" as="sourcePoint" />
            <mxPoint x="-580" y="1140" as="targetPoint" />
            <Array as="points" />
          </mxGeometry>
        </mxCell>
        <mxCell id="YKiGXNoE6KG7aFmrv9Qk-114" value="" style="endArrow=classic;html=1;rounded=0;fontSize=12;startSize=8;endSize=8;curved=0;exitX=1;exitY=0.5;exitDx=0;exitDy=0;entryX=1;entryY=0.5;entryDx=0;entryDy=0;" edge="1" parent="1" source="YKiGXNoE6KG7aFmrv9Qk-108" target="YKiGXNoE6KG7aFmrv9Qk-106">
          <mxGeometry width="50" height="50" relative="1" as="geometry">
            <mxPoint x="-260" y="1420" as="sourcePoint" />
            <mxPoint x="-260" y="1330" as="targetPoint" />
            <Array as="points">
              <mxPoint x="-320" y="1380" />
              <mxPoint x="-320" y="1140" />
            </Array>
          </mxGeometry>
        </mxCell>
        <mxCell id="YKiGXNoE6KG7aFmrv9Qk-115" value="" style="endArrow=classic;html=1;rounded=0;fontSize=12;startSize=8;endSize=8;curved=0;exitX=0;exitY=0.5;exitDx=0;exitDy=0;entryX=0.5;entryY=0;entryDx=0;entryDy=0;" edge="1" parent="1" source="YKiGXNoE6KG7aFmrv9Qk-107" target="YKiGXNoE6KG7aFmrv9Qk-109">
          <mxGeometry width="50" height="50" relative="1" as="geometry">
            <mxPoint x="-630" y="1300" as="sourcePoint" />
            <mxPoint x="-630" y="1210" as="targetPoint" />
            <Array as="points">
              <mxPoint x="-570" y="1260" />
            </Array>
          </mxGeometry>
        </mxCell>
        <mxCell id="YKiGXNoE6KG7aFmrv9Qk-116" value="" style="endArrow=classic;html=1;rounded=0;fontSize=12;startSize=8;endSize=8;curved=0;entryX=0;entryY=0.5;entryDx=0;entryDy=0;exitX=0;exitY=0.5;exitDx=0;exitDy=0;" edge="1" parent="1" source="YKiGXNoE6KG7aFmrv9Qk-109" target="YKiGXNoE6KG7aFmrv9Qk-32">
          <mxGeometry width="50" height="50" relative="1" as="geometry">
            <mxPoint x="-520" y="1260" as="sourcePoint" />
            <mxPoint x="-560" y="1230" as="targetPoint" />
            <Array as="points">
              <mxPoint x="-720" y="1380" />
              <mxPoint x="-720" y="460" />
            </Array>
          </mxGeometry>
        </mxCell>
        <mxCell id="YKiGXNoE6KG7aFmrv9Qk-118" value="The user enters&lt;div&gt;a query&lt;/div&gt;" style="text;html=1;align=center;verticalAlign=middle;resizable=0;points=[];autosize=1;strokeColor=none;fillColor=none;fontSize=16;" vertex="1" parent="1">
          <mxGeometry x="-220" y="810" width="140" height="50" as="geometry" />
        </mxCell>
        <mxCell id="YKiGXNoE6KG7aFmrv9Qk-119" value="The user selects&lt;div&gt;&quot;Add Filter&quot;&lt;/div&gt;" style="text;html=1;align=center;verticalAlign=middle;resizable=0;points=[];autosize=1;strokeColor=none;fillColor=none;fontSize=16;" vertex="1" parent="1">
          <mxGeometry x="-220" y="930" width="140" height="50" as="geometry" />
        </mxCell>
        <mxCell id="YKiGXNoE6KG7aFmrv9Qk-120" value="The user selects&lt;div&gt;the filter type&lt;/div&gt;" style="text;html=1;align=center;verticalAlign=middle;resizable=0;points=[];autosize=1;strokeColor=none;fillColor=none;fontSize=16;" vertex="1" parent="1">
          <mxGeometry x="-220" y="1050" width="140" height="50" as="geometry" />
        </mxCell>
        <mxCell id="YKiGXNoE6KG7aFmrv9Qk-121" value="The user enters&lt;div&gt;the filter value&lt;/div&gt;" style="text;html=1;align=center;verticalAlign=middle;resizable=0;points=[];autosize=1;strokeColor=none;fillColor=none;fontSize=16;" vertex="1" parent="1">
          <mxGeometry x="-60" y="990" width="140" height="50" as="geometry" />
        </mxCell>
        <mxCell id="YKiGXNoE6KG7aFmrv9Qk-122" value="The user selects&lt;div&gt;&quot;Search&quot;&lt;/div&gt;" style="text;html=1;align=center;verticalAlign=middle;resizable=0;points=[];autosize=1;strokeColor=none;fillColor=none;fontSize=16;" vertex="1" parent="1">
          <mxGeometry x="-413" y="900" width="140" height="50" as="geometry" />
        </mxCell>
        <mxCell id="YKiGXNoE6KG7aFmrv9Qk-123" value="The system finds&lt;div&gt;the results&lt;/div&gt;" style="text;html=1;align=center;verticalAlign=middle;resizable=0;points=[];autosize=1;strokeColor=none;fillColor=none;fontSize=16;" vertex="1" parent="1">
          <mxGeometry x="-550" y="1050" width="140" height="50" as="geometry" />
        </mxCell>
        <mxCell id="YKiGXNoE6KG7aFmrv9Qk-124" value="The user selects&lt;div&gt;the result&lt;/div&gt;" style="text;html=1;align=center;verticalAlign=middle;resizable=0;points=[];autosize=1;strokeColor=none;fillColor=none;fontSize=16;" vertex="1" parent="1">
          <mxGeometry x="-550" y="1170" width="140" height="50" as="geometry" />
        </mxCell>
        <mxCell id="YKiGXNoE6KG7aFmrv9Qk-125" value="The user selects&lt;div&gt;&quot;Back&quot;&lt;/div&gt;" style="text;html=1;align=center;verticalAlign=middle;resizable=0;points=[];autosize=1;strokeColor=none;fillColor=none;fontSize=16;" vertex="1" parent="1">
          <mxGeometry x="-550" y="1290" width="140" height="50" as="geometry" />
        </mxCell>
        <mxCell id="YKiGXNoE6KG7aFmrv9Qk-126" value="The user selects&lt;div&gt;&quot;To favorites&quot;&lt;/div&gt;" style="text;html=1;align=center;verticalAlign=middle;resizable=0;points=[];autosize=1;strokeColor=none;fillColor=none;fontSize=16;" vertex="1" parent="1">
          <mxGeometry x="-710" y="1290" width="140" height="50" as="geometry" />
        </mxCell>
        <mxCell id="YKiGXNoE6KG7aFmrv9Qk-127" value="" style="endArrow=classic;html=1;rounded=0;fontSize=12;startSize=8;endSize=8;curved=0;exitX=0.5;exitY=1;exitDx=0;exitDy=0;entryX=0.5;entryY=0;entryDx=0;entryDy=0;" edge="1" parent="1" source="YKiGXNoE6KG7aFmrv9Qk-32" target="YKiGXNoE6KG7aFmrv9Qk-39">
          <mxGeometry width="50" height="50" relative="1" as="geometry">
            <mxPoint x="200" y="550" as="sourcePoint" />
            <mxPoint x="260" y="670" as="targetPoint" />
            <Array as="points">
              <mxPoint x="480" y="520" />
              <mxPoint x="-320" y="520" />
            </Array>
          </mxGeometry>
        </mxCell>
        <mxCell id="YKiGXNoE6KG7aFmrv9Qk-128" value="The user selects&lt;div&gt;&quot;Search&quot;&lt;/div&gt;" style="text;html=1;align=center;verticalAlign=middle;resizable=0;points=[];autosize=1;strokeColor=none;fillColor=none;fontSize=16;" vertex="1" parent="1">
          <mxGeometry x="-460" y="535" width="140" height="50" as="geometry" />
        </mxCell>
        <mxCell id="YKiGXNoE6KG7aFmrv9Qk-130" value="" style="strokeWidth=2;html=1;shape=mxgraph.flowchart.start_2;whiteSpace=wrap;" vertex="1" parent="1">
          <mxGeometry x="160" y="640" width="40" height="40" as="geometry" />
        </mxCell>
        <mxCell id="YKiGXNoE6KG7aFmrv9Qk-131" value="" style="strokeWidth=2;html=1;shape=mxgraph.flowchart.start_2;whiteSpace=wrap;fillColor=#000000;" vertex="1" parent="1">
          <mxGeometry x="165" y="645" width="30" height="30" as="geometry" />
        </mxCell>
        <mxCell id="YKiGXNoE6KG7aFmrv9Qk-132" value="" style="endArrow=classic;html=1;rounded=0;fontSize=12;startSize=8;endSize=8;curved=0;exitX=0.5;exitY=1;exitDx=0;exitDy=0;entryX=0.5;entryY=0;entryDx=0;entryDy=0;entryPerimeter=0;" edge="1" parent="1" source="YKiGXNoE6KG7aFmrv9Qk-32" target="YKiGXNoE6KG7aFmrv9Qk-130">
          <mxGeometry width="50" height="50" relative="1" as="geometry">
            <mxPoint x="390" y="520" as="sourcePoint" />
            <mxPoint x="200" y="630" as="targetPoint" />
            <Array as="points">
              <mxPoint x="480" y="520" />
              <mxPoint x="180" y="520" />
            </Array>
          </mxGeometry>
        </mxCell>
        <mxCell id="YKiGXNoE6KG7aFmrv9Qk-133" value="The user logs out&lt;div&gt;of the bot&lt;/div&gt;" style="text;html=1;align=center;verticalAlign=middle;resizable=0;points=[];autosize=1;strokeColor=none;fillColor=none;fontSize=16;" vertex="1" parent="1">
          <mxGeometry x="30" y="540" width="150" height="50" as="geometry" />
        </mxCell>
      </root>
    </mxGraphModel>
  </diagram>
</mxfile>
